#N canvas 580 128 1062 816 10;
#X obj 431 361 dac~;
#X obj 267 -69 t f b;
#X obj 267 -107 receive node;
#X obj 18 -115 receive base;
#X obj 460 187 line~;
#X msg 403 -46 bang;
#X obj 435 211 *~;
#X obj 402 140 osc~;
#X msg 437 163 0.25 10;
#X obj 454 138 delay 10;
#X obj 402 118 float;
#X obj 364 163 *~;
#X obj 335 97 osc~;
#X obj 334 75 line~;
#X obj 335 119 *~ 0.5;
#X obj 335 141 +~ 1;
#X obj 353 31 + 1;
#X msg 353 53 \$1;
#X obj 353 9 random 10;
#X obj 287 -9 t b b;
#X obj 643 257 osc~;
#X obj 432 328 *~;
#X obj 642 145 receive ll;
#X msg 287 52 0.01 1500;
#X msg 486 163 0 1000;
#X msg -59 -97 60;
#X obj 20 62 osc~ 440;
#X obj 98 -22 t b b;
#X obj 100 -2 del 10;
#X msg 100 32 0 500;
#X obj 100 60 line~;
#X obj 21 96 *~;
#X msg 141 32 0.5 10;
#X obj 20 -56 t f b;
#X connect 1 0 10 1;
#X connect 1 1 5 0;
#X connect 2 0 1 0;
#X connect 3 0 33 0;
#X connect 4 0 6 1;
#X connect 5 0 8 0;
#X connect 5 0 9 0;
#X connect 5 0 10 0;
#X connect 5 0 19 0;
#X connect 6 0 21 0;
#X connect 7 0 11 1;
#X connect 8 0 4 0;
#X connect 9 0 24 0;
#X connect 10 0 7 0;
#X connect 11 0 6 0;
#X connect 12 0 14 0;
#X connect 13 0 12 0;
#X connect 14 0 15 0;
#X connect 15 0 11 0;
#X connect 16 0 17 0;
#X connect 17 0 13 0;
#X connect 18 0 16 0;
#X connect 19 0 23 0;
#X connect 19 1 18 0;
#X connect 20 0 21 1;
#X connect 21 0 0 0;
#X connect 21 0 0 1;
#X connect 22 0 20 0;
#X connect 23 0 13 0;
#X connect 24 0 4 0;
#X connect 25 0 33 0;
#X connect 26 0 31 0;
#X connect 27 0 28 0;
#X connect 27 1 32 0;
#X connect 28 0 29 0;
#X connect 29 0 30 0;
#X connect 30 0 31 1;
#X connect 31 0 21 0;
#X connect 32 0 30 0;
#X connect 33 0 26 0;
#X connect 33 1 27 0;
