#N canvas 422 89 1232 834 10;
#X obj 277 578 dac~;
#X msg 23 -69 200;
#X obj -102 -78 receive node;
#X obj -102 -41 trigger float bang;
#X obj -102 79 mtof;
#X msg -102 36 64;
#X msg -71 36 66;
#X msg -39 36 68;
#X msg -6 36 71;
#X msg 29 36 73;
#X msg 63 36 76;
#X obj 370 5 + 1;
#X obj 308 65 mod 4;
#X obj 308 87 select 0 1 2 3;
#X msg 335 3 0;
#X obj 308 43 trigger float float;
#X obj 308 22 float;
#X obj -102 102 send freq;
#X obj 124 457 line~;
#X msg 67 227 bang;
#X msg 150 433 0 2000;
#X obj 99 481 *~;
#X obj 66 410 osc~;
#X msg 101 433 0.25 10;
#X obj 118 408 delay 10;
#X obj 66 388 float;
#X obj 47 365 receive freq;
#X obj 28 433 *~;
#X obj -1 367 osc~;
#X obj -2 345 line~;
#X obj -82 257 trigger bang bang;
#X msg -49 322 0.01 2000;
#X obj -1 389 *~ 0.5;
#X obj -1 411 +~ 1;
#X obj 17 301 + 1;
#X msg 17 323 \$1;
#X obj 338 457 line~;
#X msg 281 227 bang;
#X msg 364 433 0 2000;
#X obj 313 481 *~;
#X obj 280 410 osc~;
#X msg 315 433 0.25 10;
#X obj 332 408 delay 10;
#X obj 280 388 float;
#X obj 261 365 receive freq;
#X obj 242 433 *~;
#X obj 213 367 osc~;
#X obj 212 345 line~;
#X obj 132 257 trigger bang bang;
#X msg 165 322 0.01 2000;
#X obj 213 389 *~ 0.5;
#X obj 213 411 +~ 1;
#X obj 231 301 + 1;
#X msg 231 323 \$1;
#X obj 578 457 line~;
#X msg 521 227 bang;
#X msg 604 433 0 2000;
#X obj 553 481 *~;
#X obj 520 410 osc~;
#X msg 555 433 0.25 10;
#X obj 572 408 delay 10;
#X obj 520 388 float;
#X obj 501 365 receive freq;
#X obj 482 433 *~;
#X obj 453 367 osc~;
#X obj 452 345 line~;
#X obj 372 257 trigger bang bang;
#X msg 405 322 0.01 2000;
#X obj 453 389 *~ 0.5;
#X obj 453 411 +~ 1;
#X obj 471 301 + 1;
#X msg 471 323 \$1;
#X obj 808 456 line~;
#X msg 751 226 bang;
#X msg 834 432 0 2000;
#X obj 783 480 *~;
#X obj 750 409 osc~;
#X msg 785 432 0.25 10;
#X obj 802 407 delay 10;
#X obj 750 387 float;
#X obj 731 364 receive freq;
#X obj 712 432 *~;
#X obj 683 366 osc~;
#X obj 682 344 line~;
#X obj 602 256 trigger bang bang;
#X msg 635 321 0.01 2000;
#X obj 683 388 *~ 0.5;
#X obj 683 410 +~ 1;
#X obj 701 300 + 1;
#X msg 701 322 \$1;
#X obj 17 279 random 10;
#X obj 231 279 random 10;
#X obj 471 279 random 10;
#X obj 701 278 random 10;
#X obj -102 7 select 1 2 3 4 5 6 7;
#X msg 95 36 80;
#X connect 1 0 3 0;
#X connect 2 0 3 0;
#X connect 3 0 94 0;
#X connect 3 1 14 0;
#X connect 4 0 17 0;
#X connect 5 0 4 0;
#X connect 6 0 4 0;
#X connect 7 0 4 0;
#X connect 8 0 4 0;
#X connect 9 0 4 0;
#X connect 10 0 4 0;
#X connect 11 0 16 1;
#X connect 12 0 13 0;
#X connect 13 0 19 0;
#X connect 13 1 37 0;
#X connect 13 2 55 0;
#X connect 13 3 14 0;
#X connect 13 3 73 0;
#X connect 14 0 16 1;
#X connect 15 0 12 0;
#X connect 15 1 11 0;
#X connect 16 0 15 0;
#X connect 18 0 21 1;
#X connect 19 0 23 0;
#X connect 19 0 24 0;
#X connect 19 0 25 0;
#X connect 19 0 30 0;
#X connect 20 0 18 0;
#X connect 21 0 0 0;
#X connect 22 0 27 1;
#X connect 23 0 18 0;
#X connect 24 0 20 0;
#X connect 25 0 22 0;
#X connect 26 0 25 1;
#X connect 27 0 21 0;
#X connect 28 0 32 0;
#X connect 29 0 28 0;
#X connect 30 0 31 0;
#X connect 30 1 90 0;
#X connect 31 0 29 0;
#X connect 32 0 33 0;
#X connect 33 0 27 0;
#X connect 34 0 35 0;
#X connect 35 0 29 0;
#X connect 36 0 39 1;
#X connect 37 0 41 0;
#X connect 37 0 42 0;
#X connect 37 0 43 0;
#X connect 37 0 48 0;
#X connect 38 0 36 0;
#X connect 39 0 0 1;
#X connect 40 0 45 1;
#X connect 41 0 36 0;
#X connect 42 0 38 0;
#X connect 43 0 40 0;
#X connect 44 0 43 1;
#X connect 45 0 39 0;
#X connect 46 0 50 0;
#X connect 47 0 46 0;
#X connect 48 0 49 0;
#X connect 48 1 91 0;
#X connect 49 0 47 0;
#X connect 50 0 51 0;
#X connect 51 0 45 0;
#X connect 52 0 53 0;
#X connect 53 0 47 0;
#X connect 54 0 57 1;
#X connect 55 0 59 0;
#X connect 55 0 60 0;
#X connect 55 0 61 0;
#X connect 55 0 66 0;
#X connect 56 0 54 0;
#X connect 57 0 0 0;
#X connect 58 0 63 1;
#X connect 59 0 54 0;
#X connect 60 0 56 0;
#X connect 61 0 58 0;
#X connect 62 0 61 1;
#X connect 63 0 57 0;
#X connect 64 0 68 0;
#X connect 65 0 64 0;
#X connect 66 0 67 0;
#X connect 66 1 92 0;
#X connect 67 0 65 0;
#X connect 68 0 69 0;
#X connect 69 0 63 0;
#X connect 70 0 71 0;
#X connect 71 0 65 0;
#X connect 72 0 75 1;
#X connect 73 0 77 0;
#X connect 73 0 78 0;
#X connect 73 0 79 0;
#X connect 73 0 84 0;
#X connect 74 0 72 0;
#X connect 75 0 0 1;
#X connect 76 0 81 1;
#X connect 77 0 72 0;
#X connect 78 0 74 0;
#X connect 79 0 76 0;
#X connect 80 0 79 1;
#X connect 81 0 75 0;
#X connect 82 0 86 0;
#X connect 83 0 82 0;
#X connect 84 0 85 0;
#X connect 84 1 93 0;
#X connect 85 0 83 0;
#X connect 86 0 87 0;
#X connect 87 0 81 0;
#X connect 88 0 89 0;
#X connect 89 0 83 0;
#X connect 90 0 34 0;
#X connect 91 0 52 0;
#X connect 92 0 70 0;
#X connect 93 0 88 0;
#X connect 94 0 5 0;
#X connect 94 1 6 0;
#X connect 94 2 7 0;
#X connect 94 3 8 0;
#X connect 94 4 9 0;
#X connect 94 5 10 0;
#X connect 94 7 95 0;
#X connect 95 0 4 0;
