#N canvas 569 333 1064 690 10;
#X msg 75 20 200;
#N canvas 602 228 455 488 synth 0;
#X obj 144 80 inlet;
#N canvas 477 165 450 300 part 0;
#X obj 105 37 inlet;
#X obj 188 109 line~;
#X msg 184 77 1 0;
#X obj 206 52 t b b;
#X obj 152 149 mtof;
#X obj 168 256 *~;
#X obj 263 242 outlet~;
#X obj 154 211 osc~;
#X obj 268 184 osc~;
#X obj 154 190 +~;
#X obj 207 192 *~;
#X obj 256 155 mtof;
#X msg 225 79 0 1000;
#X obj 125 107 + 36;
#X obj 252 131 + 7;
#X obj 325 212 /~ 3;
#X obj 204 232 +~;
#X obj 338 159 osc~ 3;
#X obj 203 147 *~ 2048;
#X connect 0 0 3 0;
#X connect 0 0 13 0;
#X connect 1 0 16 0;
#X connect 1 0 18 0;
#X connect 2 0 1 0;
#X connect 3 0 12 0;
#X connect 3 1 2 0;
#X connect 4 0 9 0;
#X connect 5 0 6 0;
#X connect 7 0 5 0;
#X connect 8 0 10 1;
#X connect 9 0 7 0;
#X connect 10 0 9 1;
#X connect 11 0 8 0;
#X connect 12 0 1 0;
#X connect 13 0 4 0;
#X connect 13 0 14 0;
#X connect 14 0 11 0;
#X connect 15 0 16 1;
#X connect 16 0 5 1;
#X connect 17 0 15 0;
#X connect 18 0 10 0;
#X restore 144 254 pd part;
#X msg 144 110 \$1 127;
#X obj 144 177 pack 0 0 0;
#X obj 144 232 unpack;
#X obj 194 232 unpack;
#X obj 244 232 unpack;
#X obj 294 232 unpack;
#X obj 144 207 route 1 2 3 4;
#X obj 144 152 poly 4 1;
#N canvas 477 165 450 300 part 0;
#X obj 105 37 inlet;
#X obj 188 109 line~;
#X msg 184 77 1 0;
#X obj 206 52 t b b;
#X obj 152 149 mtof;
#X obj 168 256 *~;
#X obj 263 242 outlet~;
#X obj 154 211 osc~;
#X obj 268 184 osc~;
#X obj 154 190 +~;
#X obj 207 192 *~;
#X obj 256 155 mtof;
#X msg 225 79 0 1000;
#X obj 125 107 + 36;
#X obj 252 131 + 7;
#X obj 325 212 /~ 3;
#X obj 204 232 +~;
#X obj 338 159 osc~ 3;
#X obj 203 147 *~ 2048;
#X connect 0 0 3 0;
#X connect 0 0 13 0;
#X connect 1 0 16 0;
#X connect 1 0 18 0;
#X connect 2 0 1 0;
#X connect 3 0 12 0;
#X connect 3 1 2 0;
#X connect 4 0 9 0;
#X connect 5 0 6 0;
#X connect 7 0 5 0;
#X connect 8 0 10 1;
#X connect 9 0 7 0;
#X connect 10 0 9 1;
#X connect 11 0 8 0;
#X connect 12 0 1 0;
#X connect 13 0 4 0;
#X connect 13 0 14 0;
#X connect 14 0 11 0;
#X connect 15 0 16 1;
#X connect 16 0 5 1;
#X connect 17 0 15 0;
#X connect 18 0 10 0;
#X restore 194 254 pd part;
#N canvas 477 165 450 300 part 0;
#X obj 105 37 inlet;
#X obj 188 109 line~;
#X msg 184 77 1 0;
#X obj 206 52 t b b;
#X obj 152 149 mtof;
#X obj 168 256 *~;
#X obj 263 242 outlet~;
#X obj 154 211 osc~;
#X obj 268 184 osc~;
#X obj 154 190 +~;
#X obj 207 192 *~;
#X obj 256 155 mtof;
#X msg 225 79 0 1000;
#X obj 125 107 + 36;
#X obj 252 131 + 7;
#X obj 325 212 /~ 3;
#X obj 204 232 +~;
#X obj 338 159 osc~ 3;
#X obj 203 147 *~ 2048;
#X connect 0 0 3 0;
#X connect 0 0 13 0;
#X connect 1 0 16 0;
#X connect 1 0 18 0;
#X connect 2 0 1 0;
#X connect 3 0 12 0;
#X connect 3 1 2 0;
#X connect 4 0 9 0;
#X connect 5 0 6 0;
#X connect 7 0 5 0;
#X connect 8 0 10 1;
#X connect 9 0 7 0;
#X connect 10 0 9 1;
#X connect 11 0 8 0;
#X connect 12 0 1 0;
#X connect 13 0 4 0;
#X connect 13 0 14 0;
#X connect 14 0 11 0;
#X connect 15 0 16 1;
#X connect 16 0 5 1;
#X connect 17 0 15 0;
#X connect 18 0 10 0;
#X restore 244 254 pd part;
#N canvas 477 165 450 300 part 0;
#X obj 105 37 inlet;
#X obj 188 109 line~;
#X msg 184 77 1 0;
#X obj 206 52 t b b;
#X obj 152 149 mtof;
#X obj 168 256 *~;
#X obj 263 242 outlet~;
#X obj 154 211 osc~;
#X obj 268 184 osc~;
#X obj 154 190 +~;
#X obj 207 192 *~;
#X obj 256 155 mtof;
#X msg 225 79 0 1000;
#X obj 125 107 + 36;
#X obj 252 131 + 7;
#X obj 325 212 /~ 3;
#X obj 204 232 +~;
#X obj 338 159 osc~ 3;
#X obj 203 147 *~ 2048;
#X connect 0 0 3 0;
#X connect 0 0 13 0;
#X connect 1 0 16 0;
#X connect 1 0 18 0;
#X connect 2 0 1 0;
#X connect 3 0 12 0;
#X connect 3 1 2 0;
#X connect 4 0 9 0;
#X connect 5 0 6 0;
#X connect 7 0 5 0;
#X connect 8 0 10 1;
#X connect 9 0 7 0;
#X connect 10 0 9 1;
#X connect 11 0 8 0;
#X connect 12 0 1 0;
#X connect 13 0 4 0;
#X connect 13 0 14 0;
#X connect 14 0 11 0;
#X connect 15 0 16 1;
#X connect 16 0 5 1;
#X connect 17 0 15 0;
#X connect 18 0 10 0;
#X restore 294 254 pd part;
#X obj 198 382 outlet~;
#X obj 205 347 freeverb~;
#X obj 258 382 outlet~;
#X obj 216 310 /~ 5;
#X obj 285 322 /~ 5;
#X connect 0 0 2 0;
#X connect 1 0 16 0;
#X connect 1 0 17 0;
#X connect 2 0 9 0;
#X connect 3 0 8 0;
#X connect 4 0 1 0;
#X connect 5 0 10 0;
#X connect 6 0 11 0;
#X connect 7 0 12 0;
#X connect 8 0 4 0;
#X connect 8 1 5 0;
#X connect 8 2 6 0;
#X connect 8 3 7 0;
#X connect 9 0 3 0;
#X connect 9 1 3 1;
#X connect 9 2 3 2;
#X connect 10 0 16 0;
#X connect 10 0 17 0;
#X connect 11 0 16 0;
#X connect 11 0 17 0;
#X connect 12 0 16 0;
#X connect 12 0 17 0;
#X connect 14 0 13 0;
#X connect 14 1 15 0;
#X connect 16 0 14 0;
#X connect 16 0 14 1;
#X connect 17 0 15 0;
#X connect 17 0 13 0;
#X restore 249 89 pd synth;
#N canvas 82 177 450 300 bass 0;
#X obj 105 37 inlet;
#X obj 188 109 line~;
#X msg 184 77 1 0;
#X obj 206 52 t b b;
#X obj 154 211 phasor~;
#X obj 154 182 mtof;
#X obj 195 270 *~;
#X obj 263 242 outlet~;
#X obj 63 197 phasor~;
#X obj 63 168 mtof;
#X obj 151 249 svf~;
#X obj 281 128 mtof~;
#X msg 224 78 0 1500;
#X obj 57 135 + 24;
#X obj 244 157 +~ 110;
#X obj 286 107 *~ 75;
#X obj 114 251 /~ 2;
#X obj 238 211 0.6;
#X obj 305 186 loadbang;
#X connect 0 0 5 0;
#X connect 0 0 3 0;
#X connect 0 0 13 0;
#X connect 1 0 6 1;
#X connect 1 0 15 0;
#X connect 2 0 1 0;
#X connect 3 0 12 0;
#X connect 3 1 2 0;
#X connect 4 0 10 0;
#X connect 5 0 4 0;
#X connect 6 0 7 0;
#X connect 8 0 16 0;
#X connect 9 0 8 0;
#X connect 10 0 6 0;
#X connect 11 0 14 0;
#X connect 12 0 1 0;
#X connect 13 0 9 0;
#X connect 14 0 10 1;
#X connect 15 0 11 0;
#X connect 16 0 10 0;
#X connect 17 0 10 2;
#X connect 18 0 17 0;
#X restore 195 90 pd bass;
#X obj 194 112 /~ 2;
#X obj 244 -102 hsl 128 15 0 100 0 0 empty empty empty -2 -8 0 10 -262144
-1 -1 0 1;
#X obj 241 -82 mtof;
#X obj 241 -61 osc~;
#X obj 250 142 *~;
#X floatatom 195 37 5 0 0 0 - - -;
#X obj 195 140 *~;
#X obj 195 239 dac~;
#X obj 277 133 del 10;
#X msg 277 152 0 500;
#X obj 277 171 line~;
#X obj 277 113 t b;
#X obj 251 193 *~;
#X obj 249 59 t f b;
#X obj 70 -42 r node;
#X connect 0 0 8 0;
#X connect 1 0 7 0;
#X connect 1 1 7 0;
#X connect 2 0 3 0;
#X connect 3 0 9 0;
#X connect 4 0 5 0;
#X connect 5 0 6 0;
#X connect 6 0 7 1;
#X connect 6 0 9 1;
#X connect 7 0 15 0;
#X connect 8 0 2 0;
#X connect 8 0 16 0;
#X connect 9 0 10 0;
#X connect 9 0 10 1;
#X connect 11 0 12 0;
#X connect 12 0 13 0;
#X connect 13 0 15 1;
#X connect 14 0 11 0;
#X connect 15 0 10 1;
#X connect 15 0 10 0;
#X connect 16 0 1 0;
#X connect 16 1 14 0;
#X connect 17 0 8 0;
