#N canvas 852 194 1064 690 10;
#X obj 70 -42 r \$0-freq;
#X msg 75 20 200;
#N canvas 602 228 455 488 synth 0;
#X obj 144 80 inlet;
#N canvas 477 165 450 300 part 0;
#X obj 105 37 inlet;
#X obj 188 109 line~;
#X msg 184 77 1 0;
#X obj 206 52 t b b;
#X obj 152 149 mtof;
#X obj 168 256 *~;
#X obj 263 242 outlet~;
#X obj 154 211 osc~;
#X obj 268 184 osc~;
#X obj 154 190 +~;
#X obj 207 192 *~;
#X obj 256 155 mtof;
#X msg 225 79 0 1000;
#X obj 125 107 + 36;
#X obj 252 131 + 7;
#X obj 325 212 /~ 3;
#X obj 204 232 +~;
#X obj 338 159 osc~ 3;
#X obj 203 147 *~ 2048;
#X connect 0 0 3 0;
#X connect 0 0 13 0;
#X connect 1 0 16 0;
#X connect 1 0 18 0;
#X connect 2 0 1 0;
#X connect 3 0 12 0;
#X connect 3 1 2 0;
#X connect 4 0 9 0;
#X connect 5 0 6 0;
#X connect 7 0 5 0;
#X connect 8 0 10 1;
#X connect 9 0 7 0;
#X connect 10 0 9 1;
#X connect 11 0 8 0;
#X connect 12 0 1 0;
#X connect 13 0 4 0;
#X connect 13 0 14 0;
#X connect 14 0 11 0;
#X connect 15 0 16 1;
#X connect 16 0 5 1;
#X connect 17 0 15 0;
#X connect 18 0 10 0;
#X restore 144 254 pd part;
#X msg 144 110 \$1 127;
#X obj 144 177 pack 0 0 0;
#X obj 144 232 unpack;
#X obj 194 232 unpack;
#X obj 244 232 unpack;
#X obj 294 232 unpack;
#X obj 144 207 route 1 2 3 4;
#X obj 144 152 poly 4 1;
#N canvas 477 165 450 300 part 0;
#X obj 105 37 inlet;
#X obj 188 109 line~;
#X msg 184 77 1 0;
#X obj 206 52 t b b;
#X obj 152 149 mtof;
#X obj 168 256 *~;
#X obj 263 242 outlet~;
#X obj 154 211 osc~;
#X obj 268 184 osc~;
#X obj 154 190 +~;
#X obj 207 192 *~;
#X obj 256 155 mtof;
#X msg 225 79 0 1000;
#X obj 125 107 + 36;
#X obj 252 131 + 7;
#X obj 325 212 /~ 3;
#X obj 204 232 +~;
#X obj 338 159 osc~ 3;
#X obj 203 147 *~ 2048;
#X connect 0 0 3 0;
#X connect 0 0 13 0;
#X connect 1 0 16 0;
#X connect 1 0 18 0;
#X connect 2 0 1 0;
#X connect 3 0 12 0;
#X connect 3 1 2 0;
#X connect 4 0 9 0;
#X connect 5 0 6 0;
#X connect 7 0 5 0;
#X connect 8 0 10 1;
#X connect 9 0 7 0;
#X connect 10 0 9 1;
#X connect 11 0 8 0;
#X connect 12 0 1 0;
#X connect 13 0 4 0;
#X connect 13 0 14 0;
#X connect 14 0 11 0;
#X connect 15 0 16 1;
#X connect 16 0 5 1;
#X connect 17 0 15 0;
#X connect 18 0 10 0;
#X restore 194 254 pd part;
#N canvas 477 165 450 300 part 0;
#X obj 105 37 inlet;
#X obj 188 109 line~;
#X msg 184 77 1 0;
#X obj 206 52 t b b;
#X obj 152 149 mtof;
#X obj 168 256 *~;
#X obj 263 242 outlet~;
#X obj 154 211 osc~;
#X obj 268 184 osc~;
#X obj 154 190 +~;
#X obj 207 192 *~;
#X obj 256 155 mtof;
#X msg 225 79 0 1000;
#X obj 125 107 + 36;
#X obj 252 131 + 7;
#X obj 325 212 /~ 3;
#X obj 204 232 +~;
#X obj 338 159 osc~ 3;
#X obj 203 147 *~ 2048;
#X connect 0 0 3 0;
#X connect 0 0 13 0;
#X connect 1 0 16 0;
#X connect 1 0 18 0;
#X connect 2 0 1 0;
#X connect 3 0 12 0;
#X connect 3 1 2 0;
#X connect 4 0 9 0;
#X connect 5 0 6 0;
#X connect 7 0 5 0;
#X connect 8 0 10 1;
#X connect 9 0 7 0;
#X connect 10 0 9 1;
#X connect 11 0 8 0;
#X connect 12 0 1 0;
#X connect 13 0 4 0;
#X connect 13 0 14 0;
#X connect 14 0 11 0;
#X connect 15 0 16 1;
#X connect 16 0 5 1;
#X connect 17 0 15 0;
#X connect 18 0 10 0;
#X restore 244 254 pd part;
#N canvas 477 165 450 300 part 0;
#X obj 105 37 inlet;
#X obj 188 109 line~;
#X msg 184 77 1 0;
#X obj 206 52 t b b;
#X obj 152 149 mtof;
#X obj 168 256 *~;
#X obj 263 242 outlet~;
#X obj 154 211 osc~;
#X obj 268 184 osc~;
#X obj 154 190 +~;
#X obj 207 192 *~;
#X obj 256 155 mtof;
#X msg 225 79 0 1000;
#X obj 125 107 + 36;
#X obj 252 131 + 7;
#X obj 325 212 /~ 3;
#X obj 204 232 +~;
#X obj 338 159 osc~ 3;
#X obj 203 147 *~ 2048;
#X connect 0 0 3 0;
#X connect 0 0 13 0;
#X connect 1 0 16 0;
#X connect 1 0 18 0;
#X connect 2 0 1 0;
#X connect 3 0 12 0;
#X connect 3 1 2 0;
#X connect 4 0 9 0;
#X connect 5 0 6 0;
#X connect 7 0 5 0;
#X connect 8 0 10 1;
#X connect 9 0 7 0;
#X connect 10 0 9 1;
#X connect 11 0 8 0;
#X connect 12 0 1 0;
#X connect 13 0 4 0;
#X connect 13 0 14 0;
#X connect 14 0 11 0;
#X connect 15 0 16 1;
#X connect 16 0 5 1;
#X connect 17 0 15 0;
#X connect 18 0 10 0;
#X restore 294 254 pd part;
#X obj 198 382 outlet~;
#X obj 205 347 freeverb~;
#X obj 258 382 outlet~;
#X obj 216 310 /~ 5;
#X obj 285 322 /~ 5;
#X connect 0 0 2 0;
#X connect 1 0 16 0;
#X connect 1 0 17 0;
#X connect 2 0 9 0;
#X connect 3 0 8 0;
#X connect 4 0 1 0;
#X connect 5 0 10 0;
#X connect 6 0 11 0;
#X connect 7 0 12 0;
#X connect 8 0 4 0;
#X connect 8 1 5 0;
#X connect 8 2 6 0;
#X connect 8 3 7 0;
#X connect 9 0 3 0;
#X connect 9 1 3 1;
#X connect 9 2 3 2;
#X connect 10 0 16 0;
#X connect 10 0 17 0;
#X connect 11 0 16 0;
#X connect 11 0 17 0;
#X connect 12 0 16 0;
#X connect 12 0 17 0;
#X connect 14 0 13 0;
#X connect 14 1 15 0;
#X connect 16 0 14 0;
#X connect 16 0 14 1;
#X connect 17 0 15 0;
#X connect 17 0 13 0;
#X restore 249 89 pd synth;
#N canvas 82 177 450 300 bass 0;
#X obj 105 37 inlet;
#X obj 188 109 line~;
#X msg 184 77 1 0;
#X obj 206 52 t b b;
#X obj 154 211 phasor~;
#X obj 154 182 mtof;
#X obj 195 270 *~;
#X obj 263 242 outlet~;
#X obj 63 197 phasor~;
#X obj 63 168 mtof;
#X obj 151 249 svf~;
#X obj 281 128 mtof~;
#X msg 224 78 0 1500;
#X obj 57 135 + 24;
#X obj 244 157 +~ 110;
#X obj 286 107 *~ 75;
#X obj 114 251 /~ 2;
#X obj 238 211 0.6;
#X obj 305 186 loadbang;
#X connect 0 0 5 0;
#X connect 0 0 3 0;
#X connect 0 0 13 0;
#X connect 1 0 6 1;
#X connect 1 0 15 0;
#X connect 2 0 1 0;
#X connect 3 0 12 0;
#X connect 3 1 2 0;
#X connect 4 0 10 0;
#X connect 5 0 4 0;
#X connect 6 0 7 0;
#X connect 8 0 16 0;
#X connect 9 0 8 0;
#X connect 10 0 6 0;
#X connect 11 0 14 0;
#X connect 12 0 1 0;
#X connect 13 0 9 0;
#X connect 14 0 10 1;
#X connect 15 0 11 0;
#X connect 16 0 10 0;
#X connect 17 0 10 2;
#X connect 18 0 17 0;
#X restore 195 90 pd bass;
#X obj 194 112 /~ 2;
#X obj 244 -102 hsl 128 15 0 100 0 0 empty empty empty -2 -8 0 10 -262144
-1 -1 0 1;
#X obj 241 -82 mtof;
#X obj 241 -61 osc~;
#X obj 250 142 *~;
#X floatatom 195 37 5 0 0 0 - - -;
#X obj 195 140 *~;
#N canvas 468 240 828 488 drums 0;
#N canvas 560 317 450 300 bd 0;
#X obj 83 -2 inlet;
#X obj 94 185 outlet~;
#X obj 96 149 osc~;
#X obj 95 128 mtof~;
#X obj 95 105 +~ 28;
#X obj 96 80 line~;
#X obj 105 29 t b b;
#X obj 75 51 0 100;
#X obj 125 51 32 0;
#X obj 195 29 t b b;
#X obj 165 51 0 500;
#X obj 216 51 1 0;
#X obj 157 153 *~;
#X obj 201 86 line~;
#X connect 0 0 6 0;
#X connect 0 0 9 0;
#X connect 2 0 12 0;
#X connect 3 0 2 0;
#X connect 4 0 3 0;
#X connect 5 0 4 0;
#X connect 6 0 7 0;
#X connect 6 1 8 0;
#X connect 7 0 5 0;
#X connect 8 0 5 0;
#X connect 9 0 10 0;
#X connect 9 1 11 0;
#X connect 10 0 13 0;
#X connect 11 0 13 0;
#X connect 12 0 1 0;
#X connect 13 0 12 1;
#X restore 200 207 pd bd;
#N canvas 0 22 492 401 hh 0;
#X obj 171 53 inlet;
#X obj 176 208 line~;
#X obj 188 140 t b b;
#X obj 208 170 1 0;
#X obj 64 177 noise~;
#X obj 101 243 *~;
#X obj 68 207 svf~ 9900 0.5;
#X obj 168 174 0 25;
#X obj 117 278 /~ 2;
#X obj 121 312 outlet~;
#X connect 0 0 2 0;
#X connect 1 0 5 1;
#X connect 2 0 7 0;
#X connect 2 1 3 0;
#X connect 3 0 1 0;
#X connect 4 0 6 0;
#X connect 5 0 8 0;
#X connect 6 1 5 0;
#X connect 7 0 1 0;
#X connect 8 0 9 0;
#X restore 340 208 pd hh;
#X obj 196 254 outlet~;
#X obj 226 6 metro 150;
#X obj 226 39 i;
#X obj 265 38 + 1;
#X obj 214 114 select 0 1 2 3 4 5 6 7 8 9 10 11 12 13 14 15;
#X obj 220 85 % 16;
#X obj 106 115 bng 15 75 50 0 empty empty empty 17 7 0 10 -262144 -258113
-1;
#X obj 126 115 bng 15 75 50 0 empty empty empty 17 7 0 10 -262144 -4034
-1;
#X obj 146 115 bng 15 75 50 0 empty empty empty 17 7 0 10 -262144 -4160
-1;
#X text 105 101 BD;
#X text 125 101 SD;
#X text 145 101 HH;
#N canvas 560 317 450 300 sd 0;
#X obj 83 -2 inlet;
#X obj 94 185 outlet~;
#X obj 96 149 osc~;
#X obj 95 128 mtof~;
#X obj 96 80 line~;
#X obj 105 29 t b b;
#X obj 195 29 t b b;
#X obj 216 51 1 0;
#X obj 157 153 *~;
#X obj 201 86 line~;
#X obj 285 29 t b b;
#X obj 306 51 1 0;
#X obj 291 86 line~;
#X obj 355 93 noise~;
#X obj 289 126 *~;
#X obj 125 51 12 0;
#X obj 95 105 +~ 55;
#X obj 75 51 0 25;
#X obj 165 51 0 100;
#X obj 255 51 0 150;
#X connect 0 0 5 0;
#X connect 0 0 6 0;
#X connect 0 0 10 0;
#X connect 2 0 8 0;
#X connect 3 0 2 0;
#X connect 4 0 16 0;
#X connect 5 0 17 0;
#X connect 5 1 15 0;
#X connect 6 0 18 0;
#X connect 6 1 7 0;
#X connect 7 0 9 0;
#X connect 8 0 1 0;
#X connect 9 0 8 1;
#X connect 10 0 19 0;
#X connect 10 1 11 0;
#X connect 11 0 12 0;
#X connect 12 0 14 0;
#X connect 13 0 14 1;
#X connect 14 0 1 0;
#X connect 15 0 4 0;
#X connect 16 0 3 0;
#X connect 17 0 4 0;
#X connect 18 0 9 0;
#X connect 19 0 12 0;
#X restore 270 207 pd sd;
#X obj 80 208 freeverb~;
#X obj 257 231 clip~ -0.5 0.5;
#X obj 162 233 /~ 3;
#X obj 108 239 /~ 3;
#X obj 350 257 /~ 5;
#X obj 226 -41 inlet;
#X connect 0 0 16 0;
#X connect 0 0 19 0;
#X connect 1 0 19 0;
#X connect 3 0 4 0;
#X connect 4 0 5 0;
#X connect 4 0 7 0;
#X connect 5 0 4 1;
#X connect 6 0 0 0;
#X connect 6 0 1 0;
#X connect 6 0 8 0;
#X connect 6 0 10 0;
#X connect 6 1 0 0;
#X connect 6 1 8 0;
#X connect 6 2 1 0;
#X connect 6 2 10 0;
#X connect 6 3 1 0;
#X connect 6 3 10 0;
#X connect 6 4 1 0;
#X connect 6 4 14 0;
#X connect 6 4 10 0;
#X connect 6 4 9 0;
#X connect 6 6 1 0;
#X connect 6 6 10 0;
#X connect 6 8 1 0;
#X connect 6 8 10 0;
#X connect 6 9 14 0;
#X connect 6 9 9 0;
#X connect 6 10 1 0;
#X connect 6 10 0 0;
#X connect 6 10 10 0;
#X connect 6 10 8 0;
#X connect 6 12 14 0;
#X connect 6 12 1 0;
#X connect 6 12 9 0;
#X connect 6 12 10 0;
#X connect 6 14 1 0;
#X connect 6 14 10 0;
#X connect 7 0 6 0;
#X connect 14 0 15 0;
#X connect 14 0 15 1;
#X connect 14 0 17 0;
#X connect 15 0 18 0;
#X connect 16 0 19 0;
#X connect 17 0 2 0;
#X connect 18 0 2 0;
#X connect 19 0 2 0;
#X connect 20 0 3 0;
#X coords 0 -1 1 1 70 40 2 100 100;
#X restore 572 84 pd drums;
#X obj 656 149 hsl 128 15 0 127 0 0 empty empty empty -2 -8 0 10 -262144
-1 -1 0 1;
#X obj 653 169 mtof;
#X obj 653 190 osc~;
#X obj 574 207 *~;
#X obj 572 56 tgl 15 0 empty empty empty 0 -6 0 8 -24198 -1 -1 0 1
;
#X obj 574 245 dac~ 1 2;
#X obj 205 423 dac~;
#X floatatom 206 353 5 0 0 0 - - -;
#N canvas 711 235 446 738 oboe 0;
#N canvas 0 22 456 361 tube 0;
#N canvas 107 87 647 382 body 0;
#X obj 203 326 hip~ 200;
#X obj 204 305 lop~ 6000;
#X obj 10 238 bp~ 1 1;
#X obj 75 237 bp~ 1 1;
#X obj 139 237 bp~ 1 1;
#X obj 213 239 bp~ 1 1;
#X obj 278 237 bp~ 1 1;
#X obj 352 239 bp~ 1 1;
#X obj 275 69 unpack f f f f f f f;
#X obj 211 10 inlet~;
#X obj 203 351 outlet~;
#X obj 410 101 clip 0.01 200;
#X obj 213 69 *~ 0.1;
#X obj 212 37 hip~ 6;
#X obj 275 11 loadbang;
#X obj 370 11 inlet;
#X text 425 239 Here they are!;
#X msg 275 40 2141.73 1858.27 1700.79 1007.87 850.394 566.929 6;
#X obj 203 282 *~ 3;
#X text 432 72 wooden tube \, ajf 2005;
#X connect 0 0 10 0;
#X connect 1 0 0 0;
#X connect 2 0 18 0;
#X connect 3 0 18 0;
#X connect 4 0 18 0;
#X connect 5 0 18 0;
#X connect 6 0 18 0;
#X connect 7 0 18 0;
#X connect 8 0 2 1;
#X connect 8 1 3 1;
#X connect 8 2 4 1;
#X connect 8 3 5 1;
#X connect 8 4 6 1;
#X connect 8 5 7 1;
#X connect 8 6 11 0;
#X connect 9 0 13 0;
#X connect 11 0 2 2;
#X connect 11 0 3 2;
#X connect 11 0 4 2;
#X connect 11 0 5 2;
#X connect 11 0 6 2;
#X connect 11 0 7 2;
#X connect 12 0 2 0;
#X connect 12 0 3 0;
#X connect 12 0 4 0;
#X connect 12 0 5 0;
#X connect 12 0 6 0;
#X connect 12 0 7 0;
#X connect 13 0 12 0;
#X connect 14 0 17 0;
#X connect 15 0 8 0;
#X connect 17 0 8 0;
#X connect 18 0 1 0;
#X restore -10 292 pd body resonance;
#X obj -9 246 inlet~;
#X obj -9 329 outlet~;
#X obj 104 128 vsl 15 64 100 1000 0 1 empty empty empty 0 -8 0 8 -262144
-1 -1 6300 1;
#X obj 124 128 vsl 15 64 100 1000 0 1 empty empty empty 0 -8 0 8 -262144
-1 -1 6300 1;
#X obj 144 128 vsl 15 64 100 1000 0 1 empty empty empty 0 -8 0 8 -262144
-1 -1 6200 1;
#X obj 164 128 vsl 15 64 100 1000 0 1 empty empty empty 0 -8 0 8 -262144
-1 -1 6300 1;
#X obj 184 128 vsl 15 64 100 1000 0 1 empty empty empty 0 -8 0 8 -262144
-1 -1 6300 1;
#X obj 204 128 vsl 15 64 100 1000 0 1 empty empty empty 0 -8 0 8 -262144
-1 -1 5700 1;
#X obj 118 235 t b;
#X obj 225 128 vsl 15 64 2 60 0 1 empty empty Q 5 5 0 8 -241291 -1
-1 6300 1;
#X obj 104 261 pack f f f f f f f;
#X connect 0 0 2 0;
#X connect 1 0 0 0;
#X connect 3 0 11 0;
#X connect 4 0 9 0;
#X connect 4 0 11 1;
#X connect 5 0 9 0;
#X connect 5 0 11 2;
#X connect 6 0 9 0;
#X connect 6 0 11 3;
#X connect 7 0 9 0;
#X connect 7 0 11 4;
#X connect 8 0 9 0;
#X connect 8 0 11 5;
#X connect 9 0 11 0;
#X connect 10 0 11 6;
#X connect 10 0 9 0;
#X connect 11 0 0 1;
#X coords 0 -1 1 1 150 100 1 100 100;
#X restore 23 287 pd tube;
#N canvas 0 22 552 541 reedpulse 0;
#X obj 101 359 *~;
#X obj 117 126 vsl 12 48 1 32 1 1 empty empty width 0 -8 1 8 -241291
-1 -1 1400 1;
#X obj 70 487 *~;
#X obj 170 157 tgl 15 1 empty empty empty 0 -6 0 8 -260818 -1 -1 1
1;
#X obj 100 267 osc~ 323;
#X obj 71 437 /~;
#X obj 49 406 sig~ 1;
#X obj 99 406 +~ 1;
#X obj 100 385 *~;
#X obj 70 509 outlet~;
#X obj 104 74 mtof;
#X obj 104 50 inlet;
#X obj 156 71 inlet~;
#X obj 70 466 *~;
#X obj 85 329 *~;
#X obj 147 125 vsl 12 48 0.01 1 1 1 empty empty mod 0 -8 1 8 -24198
-1 -1 3700 1;
#X obj 184 288 *~ 32;
#X obj 100 308 *~;
#X obj 99 245 +~;
#X obj 105 184 sig~;
#X obj 115 203 osc~ 4;
#X obj 116 225 *~ 1;
#X connect 0 0 8 0;
#X connect 0 0 8 1;
#X connect 1 0 0 1;
#X connect 2 0 9 0;
#X connect 3 0 2 1;
#X connect 4 0 14 0;
#X connect 5 0 13 0;
#X connect 6 0 5 0;
#X connect 7 0 5 1;
#X connect 8 0 7 0;
#X connect 10 0 19 0;
#X connect 11 0 10 0;
#X connect 12 0 13 1;
#X connect 12 0 17 0;
#X connect 13 0 2 0;
#X connect 14 0 0 0;
#X connect 15 0 16 0;
#X connect 16 0 17 1;
#X connect 17 0 14 1;
#X connect 18 0 4 0;
#X connect 19 0 18 0;
#X connect 20 0 21 0;
#X connect 21 0 18 1;
#X coords 0 -1 1 1 100 80 1 100 100;
#X restore 23 194 pd reedpulse;
#X obj 23 454 outlet~;
#X obj 21 128 t b f;
#X obj 18 165 - 24;
#X floatatom 21 103 5 0 0 0 - - -;
#X obj 21 67 inlet;
#X obj 115 162 ead~ 400 10000;
#X obj 23 417 *~;
#X obj 197 381 line~;
#X msg 197 361 \$1 2000;
#X obj 197 107 tgl 15 0 empty empty empty 0 -6 0 8 -260818 -1 -1 0
1;
#X connect 0 0 8 0;
#X connect 1 0 0 0;
#X connect 3 0 7 0;
#X connect 3 1 4 0;
#X connect 4 0 1 0;
#X connect 5 0 3 0;
#X connect 6 0 5 0;
#X connect 7 0 1 1;
#X connect 8 0 2 0;
#X connect 9 0 8 1;
#X connect 10 0 9 0;
#X connect 11 0 10 0;
#X coords 0 -1 1 1 120 30 1 100 100;
#X restore 206 376 pd oboe;
#N canvas 920 547 820 420 somedrums 0;
#N canvas 0 22 448 470 kicknsnr 0;
#X obj 91 19 inlet;
#X obj 114 362 outlet~;
#X obj 108 179 line~;
#X obj 107 203 *~;
#X obj 107 226 *~;
#X msg 91 148 1 2;
#X obj 124 106 del 2;
#X obj 115 319 *~;
#X obj 108 295 osc~;
#X obj 107 255 *~ 100;
#X obj 107 275 +~ 20;
#X obj 272 11 inlet;
#X obj 255 357 outlet~;
#X msg 241 122 1 2;
#X obj 256 314 *~;
#X obj 257 266 noise~;
#X obj 256 289 bp~ 400 2;
#X obj 258 150 line;
#X obj 256 177 *;
#X obj 256 200 *;
#X obj 284 227 * 100;
#X obj 284 246 + 600;
#X obj 272 52 unpack 1 2 3 4;
#X obj 255 336 *~;
#X obj 272 82 t;
#X obj 274 102 del 2;
#X obj 114 341 *~ 0.3;
#X obj 119 51 unpack 1 2;
#X obj 91 56 t;
#X obj 124 147 pack 1 2;
#X msg 124 126 0;
#X msg 274 122 0 400;
#X text 153 16 kick and snare;
#X connect 0 0 27 0;
#X connect 0 0 28 0;
#X connect 2 0 3 0;
#X connect 2 0 3 1;
#X connect 3 0 4 0;
#X connect 3 0 4 1;
#X connect 4 0 7 1;
#X connect 4 0 9 0;
#X connect 5 0 2 0;
#X connect 6 0 30 0;
#X connect 7 0 26 0;
#X connect 8 0 7 0;
#X connect 9 0 10 0;
#X connect 10 0 8 0;
#X connect 11 0 22 0;
#X connect 13 0 17 0;
#X connect 14 0 23 0;
#X connect 15 0 16 0;
#X connect 16 0 14 0;
#X connect 17 0 18 0;
#X connect 17 0 18 1;
#X connect 18 0 19 0;
#X connect 18 0 19 1;
#X connect 19 0 14 1;
#X connect 19 0 20 0;
#X connect 20 0 21 0;
#X connect 21 0 16 1;
#X connect 22 0 20 1;
#X connect 22 0 24 0;
#X connect 22 1 21 1;
#X connect 22 2 16 2;
#X connect 22 3 23 1;
#X connect 23 0 12 0;
#X connect 24 0 13 0;
#X connect 24 0 25 0;
#X connect 25 0 31 0;
#X connect 26 0 1 0;
#X connect 27 0 29 1;
#X connect 27 1 9 1;
#X connect 28 0 6 0;
#X connect 28 0 5 0;
#X connect 29 0 2 0;
#X connect 30 0 29 0;
#X connect 31 0 17 0;
#X restore 28 66 pd kicknsnr;
#X msg 94 36 50 300 4 0.9;
#X msg 28 13 600 100;
#X msg 29 35 1800 80;
#X msg 90 -10 500 600 1 0.2;
#X msg 92 12 200 600 1 0.25;
#X msg 27 -8 300 130;
#X obj 27 -55 mod 16;
#X obj 27 -35 select 1 3 7 14 15;
#X obj 103 113 tgl 15 1 empty empty empty 0 -6 0 8 -260818 -1 -1 1
1;
#X obj 92 134 *~;
#N canvas 0 22 519 490 clap 0;
#X obj 169 81 noise~;
#X obj 231 377 *~;
#X obj 150 320 *~;
#X obj 168 263 *~ 0.8;
#X obj 150 344 *~ 0.2;
#X obj 150 287 ead~ 1 800;
#X obj 357 148 del 30;
#X obj 357 168 del 20;
#X obj 357 188 del 15;
#X obj 357 208 del 10;
#X obj -16 189 *~ 0.1;
#X obj 65 162 bp~ 1300 10;
#X obj 252 161 bp~ 700 10;
#X obj 168 161 bp~ 2500 4;
#X obj 231 421 bp~ 2700 2;
#X obj 231 288 ead~ 3 50;
#X obj -17 162 lop~ 8000;
#X obj 168 121 hip~ 300;
#X obj 304 23 inlet;
#X obj 232 463 outlet~;
#X obj 367 21 inlet;
#X obj 367 52 t b b;
#X obj 304 52 t b b b;
#X obj 232 442 *~ 0.3;
#X text 303 5 single;
#X text 366 5 cluster;
#X connect 0 0 16 0;
#X connect 0 0 17 0;
#X connect 1 0 14 0;
#X connect 2 0 1 1;
#X connect 2 0 4 0;
#X connect 3 0 2 1;
#X connect 4 0 14 0;
#X connect 5 0 2 0;
#X connect 6 0 7 0;
#X connect 6 0 15 0;
#X connect 7 0 8 0;
#X connect 7 0 15 0;
#X connect 8 0 9 0;
#X connect 8 0 15 0;
#X connect 9 0 15 0;
#X connect 10 0 3 0;
#X connect 11 0 3 0;
#X connect 12 0 3 0;
#X connect 13 0 3 0;
#X connect 14 0 23 0;
#X connect 15 0 1 0;
#X connect 16 0 10 0;
#X connect 17 0 11 0;
#X connect 17 0 12 0;
#X connect 17 0 13 0;
#X connect 18 0 22 0;
#X connect 20 0 21 0;
#X connect 21 0 5 0;
#X connect 21 1 15 0;
#X connect 22 0 5 0;
#X connect 22 1 15 0;
#X connect 22 2 6 0;
#X connect 23 0 19 0;
#X restore 137 64 pd clap;
#X obj 195 -55 mod 16;
#X obj 195 -33 select 2 5 14;
#N canvas 0 22 587 370 noisehits 0;
#N canvas 0 22 239 236 eadenv 0;
#X obj 89 140 *~;
#X obj 60 60 inlet~;
#X obj 110 61 inlet;
#X obj 89 165 outlet~;
#X obj 110 111 ead~ 2 800;
#X connect 0 0 3 0;
#X connect 1 0 0 0;
#X connect 2 0 4 0;
#X connect 4 0 0 1;
#X coords 0 0 1 1 80 80 0;
#X restore 55 280 pd eadenv;
#X obj 54 227 r prog;
#N canvas 0 22 346 246 3bandnoise 0;
#X obj 119 21 noise~;
#X obj 33 62 bp~ 100 1;
#X obj 32 88 *~;
#X obj 118 61 bp~ 100 1;
#X obj 206 60 bp~ 100 1;
#X obj 119 92 *~;
#X obj 205 93 *~;
#X obj 119 129 *~ 2;
#X obj 118 158 outlet~;
#X obj 63 -1 unpack 1 2 3 4 5 6 7 8 9 10;
#X text 116 -22 program in;
#X obj 63 -22 inlet;
#X connect 0 0 1 0;
#X connect 0 0 3 0;
#X connect 0 0 4 0;
#X connect 1 0 2 0;
#X connect 2 0 7 0;
#X connect 3 0 5 0;
#X connect 4 0 6 0;
#X connect 5 0 7 0;
#X connect 6 0 7 0;
#X connect 7 0 8 0;
#X connect 9 0 7 1;
#X connect 9 1 1 1;
#X connect 9 2 1 2;
#X connect 9 3 2 1;
#X connect 9 4 3 1;
#X connect 9 5 3 2;
#X connect 9 6 5 1;
#X connect 9 7 4 1;
#X connect 9 8 4 2;
#X connect 9 9 6 1;
#X connect 11 0 9 0;
#X coords 0 0 1 1 200 140 0;
#X restore 55 253 pd 3bandnoise;
#X obj 54 206 t l b;
#X obj 56 327 outlet~;
#X obj 55 303 *~ 0.3;
#X msg 55 98 2.4 200 14 0.746 249 2.46 0.71 217 20.2 0.69;
#X msg 55 77 2.23 2229 64 0.761 3000 64 0.84 2503 64 0.88;
#X msg 54 54 1 3000 14 0.888 2591 20.2 1 1742 22.1 0.76;
#X msg 91 162 2.7 862 32 0.619 446 32 0.79 587 20.2 0.76 \;;
#X msg 101 181 3 5000 64 0.33 2500 64 0.8 3750 64 0.7;
#X msg 65 119 16 138 4.66 0.19 160 2.46 0.12 73.22 16.8 1;
#X msg 77 140 5.69 772 64 0.619 691 64 0.77 489 64 0.74;
#X obj 94 23 sel 0 1 2 3 4 5 6 7;
#X obj 95 1 inlet;
#N canvas 0 22 450 300 programmer 0;
#X obj 117 189 pack 1 2 3 4 5 6 7 8 9 10;
#X obj 117 212 outlet;
#X obj 155 156 t b;
#X obj 140 66 vsl 12 64 0 1 0 0 empty empty l1 0 -8 0 8 -261689 -1
-1 0 1;
#X obj 91 66 vsl 12 64 30 5000 1 0 empty empty f1 0 -8 0 8 -261681
-1 -1 0 1;
#X obj 114 66 vsl 12 64 0.1 64 1 0 empty empty q1 0 -8 0 8 -262131
-1 -1 0 1;
#X obj 175 65 vsl 12 64 30 3000 1 0 empty empty f2 0 -8 0 8 -261681
-1 -1 0 1;
#X obj 198 65 vsl 12 64 0.1 64 1 0 empty empty q2 0 -8 0 8 -262131
-1 -1 0 1;
#X obj 264 66 vsl 12 64 10 3000 1 0 empty empty f3 0 -8 0 8 -261681
-1 -1 0 1;
#X obj 289 66 vsl 12 64 0.1 64 1 0 empty empty q3 0 -8 0 8 -262131
-1 -1 0 1;
#X obj 220 65 vsl 12 64 0 1 0 0 empty empty l2 0 -8 0 8 -261689 -1
-1 0 1;
#X obj 313 66 vsl 12 64 0 1 0 0 empty empty l3 0 -8 0 8 -261689 -1
-1 0 1;
#X obj 53 65 vsl 12 64 0.04 16 1 0 empty empty amp 0 -8 0 8 -260818
-1 -1 0 1;
#X connect 0 0 1 0;
#X connect 2 0 0 0;
#X connect 3 0 2 0;
#X connect 3 0 0 3;
#X connect 4 0 2 0;
#X connect 4 0 0 1;
#X connect 5 0 2 0;
#X connect 5 0 0 2;
#X connect 6 0 2 0;
#X connect 6 0 0 4;
#X connect 7 0 2 0;
#X connect 7 0 0 5;
#X connect 8 0 2 0;
#X connect 8 0 0 7;
#X connect 9 0 2 0;
#X connect 9 0 0 8;
#X connect 10 0 2 0;
#X connect 10 0 0 6;
#X connect 11 0 2 0;
#X connect 11 0 0 9;
#X connect 12 0 0 0;
#X restore 420 46 pd programmer;
#X connect 0 0 5 0;
#X connect 1 0 2 0;
#X connect 2 0 0 0;
#X connect 3 0 2 0;
#X connect 3 1 0 1;
#X connect 5 0 4 0;
#X connect 6 0 3 0;
#X connect 7 0 3 0;
#X connect 8 0 3 0;
#X connect 9 0 3 0;
#X connect 10 0 3 0;
#X connect 11 0 3 0;
#X connect 12 0 3 0;
#X connect 13 0 8 0;
#X connect 13 1 7 0;
#X connect 13 2 6 0;
#X connect 13 3 11 0;
#X connect 13 4 12 0;
#X connect 13 5 9 0;
#X connect 13 6 10 0;
#X connect 14 0 13 0;
#X restore 227 66 pd noisehits;
#X obj 294 -55 mod 16;
#X msg 226 34 3;
#X msg 262 34 2;
#X msg 299 32 4;
#X obj 294 -33 select 1 4 7;
#N canvas 0 22 450 300 tamb 0;
#X msg 91 98 1700 3149 2330 1511 217 40 6300 1;
#X msg 83 76 1700 3149 2330 1511 300 20 6300 1;
#X msg 101 119 1700 3149 2330 1511 217 40 6300 10;
#N canvas 0 22 482 669 tambsyn 0;
#X obj 147 258 noise~;
#X obj 258 306 bp~ 100 30;
#X obj 31 351 *~;
#X obj 53 328 line~;
#X obj 142 392 *~ 1;
#X obj 182 306 bp~ 100 30;
#X obj 106 306 bp~ 100 30;
#X obj 30 306 bp~ 100 30;
#X obj 259 357 *~;
#X obj 281 334 line~;
#X obj 106 355 *~;
#X obj 128 332 line~;
#X obj 183 354 *~;
#X obj 205 331 line~;
#X obj 399 147 * 2;
#X obj 398 171 * 2;
#X obj 397 193 * 2;
#X msg 213 258 1 \, 0 \$1;
#X msg 273 257 1 \, 0 \$1;
#X msg 337 257 1 \, 0 \$1;
#X msg 397 256 1 \, 0 \$1;
#X obj 399 123 f;
#X obj 158 415 osc~ 5500;
#X obj 142 447 *~;
#X obj 399 65 del 8;
#X obj 399 89 del 13;
#X obj 95 -46 t b l;
#X obj 88 -5 unpack f f f f f f f f;
#X obj 436 41 * 2;
#X obj 399 15 t b b;
#X obj 95 -72 inlet;
#X text 35 263 metals 24;
#X obj 136 504 outlet~;
#X obj 141 471 *~ 0.6;
#X text 156 -69 tamb bells;
#X connect 0 0 1 0;
#X connect 0 0 5 0;
#X connect 0 0 6 0;
#X connect 0 0 7 0;
#X connect 1 0 8 0;
#X connect 2 0 4 0;
#X connect 3 0 2 1;
#X connect 4 0 23 0;
#X connect 5 0 12 0;
#X connect 6 0 10 0;
#X connect 7 0 2 0;
#X connect 8 0 4 0;
#X connect 9 0 8 1;
#X connect 10 0 4 0;
#X connect 11 0 10 1;
#X connect 12 0 4 0;
#X connect 13 0 12 1;
#X connect 14 0 15 0;
#X connect 14 0 18 0;
#X connect 15 0 16 0;
#X connect 15 0 19 0;
#X connect 16 0 20 0;
#X connect 17 0 3 0;
#X connect 18 0 11 0;
#X connect 19 0 13 0;
#X connect 20 0 9 0;
#X connect 21 0 17 0;
#X connect 21 0 14 0;
#X connect 22 0 23 1;
#X connect 23 0 33 0;
#X connect 24 0 25 0;
#X connect 25 0 21 0;
#X connect 26 0 29 0;
#X connect 26 1 27 0;
#X connect 27 0 7 1;
#X connect 27 1 6 1;
#X connect 27 2 5 1;
#X connect 27 3 1 1;
#X connect 27 4 7 2;
#X connect 27 4 6 2;
#X connect 27 4 5 2;
#X connect 27 4 1 2;
#X connect 27 5 21 1;
#X connect 27 6 22 0;
#X connect 27 7 28 0;
#X connect 27 7 24 1;
#X connect 28 0 25 1;
#X connect 29 0 24 0;
#X connect 29 1 21 0;
#X connect 30 0 26 0;
#X connect 33 0 32 0;
#X coords 0 0 1 1 85 60 0;
#X restore 68 144 pd tambsyn;
#X obj 97 23 inlet;
#X obj 98 45 sel 0 1 2;
#X obj 65 171 outlet~;
#X connect 0 0 3 0;
#X connect 1 0 3 0;
#X connect 2 0 3 0;
#X connect 3 0 6 0;
#X connect 4 0 5 0;
#X connect 5 0 1 0;
#X connect 5 1 0 0;
#X connect 5 2 2 0;
#X restore 336 67 pd tamb;
#X msg 372 32 2;
#X msg 409 30 1;
#X msg 336 32 0;
#N canvas 185 144 782 732 bongo 0;
#X msg 81 98 488.189 440.945 75.5906 195.276 66.1417 584.252 0.677165
;
#X msg 119 118 488.189 440.945 75.5906 195.276 66.1417 203.937 0.677165
;
#X msg 136 138 488.189 403.15 75.5906 195.276 66.1417 363.78 0.685039
;
#X msg 148 158 450.394 403.15 75.5906 195.276 126.772 363.78 0.685039
;
#X msg 179 178 492.913 403.15 166.929 195.276 121.26 192.913 0.685039
;
#X msg 200 201 880 200.15 166.929 195.276 121.26 182.913 0.685039;
#X obj 149 461 *~;
#X obj 136 413 osc~;
#X obj 181 413 osc~;
#X obj 239 461 *~;
#X obj 226 413 osc~;
#X obj 271 413 osc~;
#X obj 148 490 *~;
#X obj 239 491 *~;
#X obj 182 440 line~;
#X obj 271 438 line~;
#N canvas 38 420 450 300 nv 0;
#X msg 121 159 1 \$1;
#X msg 160 159 0 \$1;
#X obj 134 64 t b b;
#X obj 140 191 outlet;
#X obj 134 39 inlet;
#X obj 258 38 inlet;
#X obj 168 128 f;
#X obj 121 131 f;
#X obj 202 38 inlet;
#X obj 134 89 del 1;
#X connect 0 0 3 0;
#X connect 1 0 3 0;
#X connect 2 0 9 0;
#X connect 2 1 7 0;
#X connect 4 0 2 0;
#X connect 5 0 6 1;
#X connect 6 0 1 0;
#X connect 7 0 0 0;
#X connect 8 0 7 1;
#X connect 8 0 9 1;
#X connect 9 0 6 0;
#X restore 285 333 pd nv;
#X obj 136 385 *;
#X obj 181 386 *;
#X obj 226 388 *;
#X obj 271 388 *;
#X obj 137 360 t b f;
#X obj 181 360 t b f;
#X obj 226 360 t b f;
#X obj 271 361 t b f;
#X obj 211 516 *~;
#X msg 300 312 2;
#N canvas 38 420 450 300 nv 0;
#X msg 121 159 1 \$1;
#X msg 160 159 0 \$1;
#X obj 134 64 t b b;
#X obj 140 191 outlet;
#X obj 134 39 inlet;
#X obj 258 38 inlet;
#X obj 168 128 f;
#X obj 121 131 f;
#X obj 202 38 inlet;
#X obj 134 89 del 1;
#X connect 0 0 3 0;
#X connect 1 0 3 0;
#X connect 2 0 9 0;
#X connect 2 1 7 0;
#X connect 4 0 2 0;
#X connect 5 0 6 1;
#X connect 6 0 1 0;
#X connect 7 0 0 0;
#X connect 8 0 7 1;
#X connect 8 0 9 1;
#X connect 9 0 6 0;
#X restore 329 333 pd nv;
#X msg 344 312 2;
#X obj 183 461 *~;
#X obj 272 462 *~;
#X obj 136 259 unpack f f f f f f f;
#X obj 134 225 t b l;
#X obj 320 288 loadbang;
#X obj 240 617 hip~ 400;
#X obj 301 491 noise~;
#X obj 300 540 *~;
#X obj 273 491 *~;
#X obj 299 562 *~ 5;
#X obj 335 469 * 4;
#X obj 300 514 bp~ 6000 22;
#X obj 120 41 sel 0 1 2 3 4 5 6;
#X obj 123 12 inlet;
#X obj 240 643 outlet~;
#X obj 239 592 *~ 0.085;
#X text 180 15 hand drums;
#X connect 0 0 32 0;
#X connect 1 0 32 0;
#X connect 2 0 32 0;
#X connect 3 0 32 0;
#X connect 4 0 32 0;
#X connect 5 0 32 0;
#X connect 6 0 12 0;
#X connect 7 0 6 0;
#X connect 8 0 6 1;
#X connect 9 0 13 0;
#X connect 10 0 9 0;
#X connect 11 0 9 1;
#X connect 12 0 25 0;
#X connect 12 0 44 0;
#X connect 13 0 25 1;
#X connect 13 0 44 0;
#X connect 14 0 29 0;
#X connect 14 0 29 1;
#X connect 15 0 30 0;
#X connect 15 0 30 1;
#X connect 16 0 14 0;
#X connect 17 0 7 0;
#X connect 18 0 8 0;
#X connect 19 0 10 0;
#X connect 19 0 39 0;
#X connect 20 0 11 0;
#X connect 21 0 17 0;
#X connect 21 1 17 1;
#X connect 22 0 18 0;
#X connect 22 1 18 1;
#X connect 23 0 19 0;
#X connect 23 1 19 1;
#X connect 24 0 20 0;
#X connect 24 1 20 1;
#X connect 25 0 44 0;
#X connect 26 0 16 1;
#X connect 27 0 15 0;
#X connect 28 0 27 1;
#X connect 29 0 12 1;
#X connect 30 0 13 1;
#X connect 30 0 37 0;
#X connect 30 0 37 1;
#X connect 31 0 17 0;
#X connect 31 1 18 0;
#X connect 31 2 19 0;
#X connect 31 3 20 0;
#X connect 31 4 16 2;
#X connect 31 5 27 2;
#X connect 31 6 24 0;
#X connect 31 6 23 0;
#X connect 31 6 22 0;
#X connect 31 6 21 0;
#X connect 32 0 16 0;
#X connect 32 0 27 0;
#X connect 32 1 31 0;
#X connect 33 0 26 0;
#X connect 33 0 28 0;
#X connect 34 0 43 0;
#X connect 35 0 40 0;
#X connect 36 0 38 0;
#X connect 37 0 36 1;
#X connect 38 0 44 0;
#X connect 39 0 40 1;
#X connect 40 0 36 0;
#X connect 41 0 0 0;
#X connect 41 1 1 0;
#X connect 41 2 2 0;
#X connect 41 3 3 0;
#X connect 41 4 4 0;
#X connect 41 5 5 0;
#X connect 42 0 41 0;
#X connect 44 0 34 0;
#X restore 520 68 pd bongo;
#X msg 520 37 2;
#X msg 557 35 4;
#X obj 525 -56 mod 16;
#X obj 525 -34 select 6 11 13;
#X msg 591 36 5;
#X obj 391 -56 mod 8;
#X obj 391 -34 select 0 3 4 5 6 7;
#N canvas 259 162 323 328 disco-dave 0;
#N canvas 0 22 318 566 noisekick 0;
#X obj 99 2 inlet;
#X obj 120 491 outlet~;
#X obj 106 146 line~;
#X obj 105 170 *~;
#X obj 105 193 *~;
#X msg 106 119 1 2;
#X obj 45 79 del 2;
#X obj 113 286 *~;
#X obj 106 262 osc~;
#X obj 105 222 *~ 100;
#X obj 105 242 +~ 20;
#X obj 128 25 unpack 1 2;
#X obj 45 119 pack 1 2;
#X msg 45 99 0;
#X obj 172 288 osc~;
#X obj 171 246 *~ 100;
#X obj 172 267 +~ 22;
#X obj 140 343 *~;
#X obj 155 200 noise~;
#X obj 155 221 bp~ 100 2;
#X msg 17 177 0;
#X obj 17 202 switch~;
#X msg 53 177 1;
#X obj 17 152 del 200;
#X obj 121 412 clip~ -0.9 0.9;
#X obj 83 369 *~ 0.66;
#X obj 156 315 *~;
#X obj 208 196 * 0.77;
#X obj 140 368 *~ 1.6;
#X obj 122 464 lop~ 800;
#X obj 121 438 hip~ 20;
#X obj 49 26 t b b b b;
#X connect 0 0 11 0;
#X connect 0 0 31 0;
#X connect 2 0 3 0;
#X connect 2 0 3 1;
#X connect 2 0 15 0;
#X connect 3 0 4 0;
#X connect 3 0 4 1;
#X connect 4 0 7 1;
#X connect 4 0 9 0;
#X connect 5 0 2 0;
#X connect 6 0 13 0;
#X connect 7 0 17 0;
#X connect 7 0 25 0;
#X connect 8 0 7 0;
#X connect 9 0 10 0;
#X connect 10 0 8 0;
#X connect 11 0 12 1;
#X connect 11 0 23 1;
#X connect 11 1 9 1;
#X connect 11 1 19 1;
#X connect 11 1 27 0;
#X connect 12 0 2 0;
#X connect 13 0 12 0;
#X connect 14 0 26 1;
#X connect 15 0 16 0;
#X connect 16 0 14 0;
#X connect 17 0 28 0;
#X connect 18 0 19 0;
#X connect 19 0 26 0;
#X connect 20 0 21 0;
#X connect 22 0 21 0;
#X connect 23 0 20 0;
#X connect 24 0 30 0;
#X connect 25 0 24 0;
#X connect 26 0 17 1;
#X connect 27 0 15 1;
#X connect 28 0 24 0;
#X connect 29 0 1 0;
#X connect 30 0 29 0;
#X connect 31 0 6 0;
#X connect 31 1 23 0;
#X connect 31 2 5 0;
#X connect 31 3 22 0;
#X restore 18 145 pd noisekick;
#N canvas 0 22 500 420 fmcym 0;
#X obj 246 184 clip~ -0.1 0.1;
#N canvas 0 22 155 418 noizy 0;
#X obj 32 113 wrap~;
#X obj 16 84 -~ 0.5;
#X obj 32 135 -~ 0.5;
#X obj 16 160 -~;
#X obj 48 279 wrap~;
#X obj 31 259 -~ 0.5;
#X obj 48 305 -~ 0.5;
#X obj 31 333 -~;
#X obj 14 356 *~;
#X obj 31 237 phasor~;
#X obj 24 9 inlet;
#X obj 13 385 outlet~;
#X obj 24 31 unpack 1 2 3;
#X obj 17 62 phasor~;
#X obj 32 193 *~;
#X obj 32 214 +~;
#X connect 0 0 2 0;
#X connect 1 0 0 0;
#X connect 1 0 3 0;
#X connect 2 0 3 1;
#X connect 3 0 8 0;
#X connect 3 0 14 0;
#X connect 4 0 6 0;
#X connect 5 0 4 0;
#X connect 5 0 7 0;
#X connect 6 0 7 1;
#X connect 7 0 8 1;
#X connect 8 0 11 0;
#X connect 9 0 5 0;
#X connect 10 0 12 0;
#X connect 12 0 13 0;
#X connect 12 1 14 1;
#X connect 12 2 15 1;
#X connect 13 0 1 0;
#X connect 14 0 15 0;
#X connect 15 0 9 0;
#X restore 318 142 pd noizy;
#X obj 231 309 outlet~;
#X obj 276 75 loadbang;
#X obj 231 233 *~;
#X obj 126 143 line~;
#X obj 44 86 del 3;
#X obj 11 36 inlet;
#X obj 20 59 t;
#X msg 9 87 1 3;
#X obj 125 170 *~;
#X msg 318 119 1478 1765 1249;
#X msg 216 118 893 2348 3256;
#N canvas 0 22 161 470 noizy 0;
#X obj 38 108 wrap~;
#X obj 33 83 -~ 0.5;
#X obj 38 130 -~ 0.5;
#X obj 22 152 -~;
#X obj 54 279 wrap~;
#X obj 37 243 -~ 0.5;
#X obj 54 305 -~ 0.5;
#X obj 37 328 -~;
#X obj 22 382 *~;
#X obj 37 221 phasor~;
#X obj 34 12 inlet;
#X obj 21 411 outlet~;
#X obj 34 38 unpack 1 2 3;
#X obj 34 61 phasor~;
#X obj 38 177 *~;
#X obj 38 198 +~;
#X connect 0 0 2 0;
#X connect 1 0 0 0;
#X connect 1 0 3 0;
#X connect 2 0 3 1;
#X connect 3 0 8 0;
#X connect 3 0 14 0;
#X connect 4 0 6 0;
#X connect 5 0 4 0;
#X connect 5 0 7 0;
#X connect 6 0 7 1;
#X connect 7 0 8 1;
#X connect 8 0 11 0;
#X connect 9 0 5 0;
#X connect 10 0 12 0;
#X connect 12 0 13 0;
#X connect 12 1 14 1;
#X connect 12 2 15 1;
#X connect 13 0 1 0;
#X connect 14 0 15 0;
#X connect 15 0 9 0;
#X restore 216 142 pd noizy;
#X obj 231 286 *~ 0.55;
#X obj 134 84 del 3;
#X obj 101 34 inlet;
#X obj 110 57 t;
#X msg 99 84 1 3;
#X msg 134 109 0 700;
#X text 107 10 long;
#X text 12 14 short;
#X obj 230 265 hip~ 400;
#X msg 48 111 0 100;
#X connect 0 0 4 1;
#X connect 1 0 0 0;
#X connect 3 0 11 0;
#X connect 3 0 12 0;
#X connect 4 0 22 0;
#X connect 5 0 10 0;
#X connect 5 0 10 1;
#X connect 6 0 23 0;
#X connect 7 0 8 0;
#X connect 8 0 6 0;
#X connect 8 0 9 0;
#X connect 9 0 5 0;
#X connect 10 0 4 0;
#X connect 11 0 1 0;
#X connect 12 0 13 0;
#X connect 13 0 0 0;
#X connect 14 0 2 0;
#X connect 15 0 19 0;
#X connect 16 0 17 0;
#X connect 17 0 15 0;
#X connect 17 0 18 0;
#X connect 18 0 5 0;
#X connect 19 0 5 0;
#X connect 22 0 14 0;
#X connect 23 0 5 0;
#X restore 112 145 pd fmcym;
#X obj 114 196 *~ 0.6;
#X obj 18 173 *~ 0.8;
#X msg 19 96 220 80;
#X msg 99 96 bang;
#X msg 139 98 bang;
#N canvas 0 34 995 598 botsd 0;
#X obj 153 782 outlet~;
#X obj 320 442 noise~;
#X obj 121 616 *~;
#X obj 318 467 hip~ 1500;
#X obj 261 499 *~;
#X obj 273 362 -~;
#X obj 204 405 *~;
#X obj 179 303 clip~ -0.5 0.5;
#X obj 201 360 +~ 0.5;
#X obj 116 649 clip~ -0.99 0.99;
#X obj 216 445 *~ 0.2;
#X obj 115 477 osc~;
#X obj 225 542 *~ 3;
#X obj 99 26 inlet trigger;
#X obj 165 733 *~;
#X obj 179 209 *~ 50;
#X obj 224 232 +~ 70;
#X obj 171 233 +~ 50;
#X obj 229 266 osc~;
#X obj 155 265 osc~;
#X msg 311 221 0;
#X obj 289 686 *~;
#X obj 447 405 *~;
#X obj 407 433 *~ 0.8;
#X obj 712 39 inlet;
#X msg 644 511 1;
#X msg 723 521 0;
#X text 608 92 decay;
#X text 750 92 volume;
#X obj 370 391 *~;
#X obj 234 329 sig~ 1;
#X obj 768 620 outlet onoff;
#X obj 659 606 switch~ 0;
#X obj 290 80 t b b f;
#X obj 504 192 t3_bpe;
#X obj 500 217 t3_line~ 0;
#X obj 602 211 t3_delay;
#X msg 564 174 stop;
#X msg 423 144 0;
#X obj 472 129 pack 1 0.2 0 f;
#X obj 497 326 *~;
#X obj 114 448 +~ 80;
#X obj 114 416 *~ 130;
#X obj 395 311 *~ -1;
#X obj 367 344 +~ 1;
#X obj 145 529 *~ 0.7;
#X obj 227 594 bp~ 2500 1;
#X obj 661 113 unpack f f;
#X obj 651 141 * 130;
#X obj 651 169 + 40;
#X connect 1 0 3 0;
#X connect 2 0 9 0;
#X connect 3 0 4 1;
#X connect 4 0 12 0;
#X connect 5 0 6 1;
#X connect 6 0 10 0;
#X connect 7 0 8 0;
#X connect 8 0 6 0;
#X connect 9 0 21 0;
#X connect 10 0 4 0;
#X connect 11 0 45 0;
#X connect 12 0 46 0;
#X connect 13 0 33 0;
#X connect 14 0 0 0;
#X connect 15 0 17 0;
#X connect 15 0 16 0;
#X connect 16 0 18 0;
#X connect 17 0 19 0;
#X connect 18 0 7 0;
#X connect 19 0 7 0;
#X connect 20 0 18 1;
#X connect 20 0 19 1;
#X connect 21 0 14 0;
#X connect 22 0 23 0;
#X connect 23 0 2 0;
#X connect 24 0 47 0;
#X connect 25 0 32 0;
#X connect 25 0 31 0;
#X connect 26 0 31 0;
#X connect 26 0 32 0;
#X connect 30 0 5 0;
#X connect 33 0 38 0;
#X connect 33 1 37 0;
#X connect 33 1 39 0;
#X connect 33 1 25 0;
#X connect 33 1 20 0;
#X connect 33 2 14 1;
#X connect 34 0 35 0;
#X connect 34 1 35 1;
#X connect 34 2 36 0;
#X connect 35 0 40 0;
#X connect 35 0 40 1;
#X connect 35 0 15 0;
#X connect 35 0 43 0;
#X connect 36 0 26 0;
#X connect 37 0 36 0;
#X connect 38 0 34 0;
#X connect 39 0 34 0;
#X connect 40 0 42 0;
#X connect 40 0 22 0;
#X connect 40 0 22 1;
#X connect 41 0 11 0;
#X connect 42 0 41 0;
#X connect 43 0 44 0;
#X connect 44 0 5 0;
#X connect 44 0 4 0;
#X connect 45 0 2 1;
#X connect 46 0 2 1;
#X connect 47 0 48 0;
#X connect 47 1 21 1;
#X connect 48 0 49 0;
#X connect 49 0 39 3;
#X restore 174 145 pd botsd;
#X obj 173 193 *~ 0.05;
#X obj 174 122 list split 1;
#X msg 174 99 20 0.99 0.3;
#X obj 77 47 sel 0 1 2 3;
#X obj 77 25 inlet;
#X obj 115 264 outlet~;
#X obj 114 232 *~ 0.7;
#X text 123 22 analog drums;
#X connect 0 0 3 0;
#X connect 1 0 2 0;
#X connect 2 0 14 0;
#X connect 3 0 14 0;
#X connect 4 0 0 0;
#X connect 5 0 1 0;
#X connect 6 0 1 1;
#X connect 7 0 8 0;
#X connect 8 0 14 0;
#X connect 9 0 7 0;
#X connect 9 1 7 1;
#X connect 10 0 9 0;
#X connect 11 0 4 0;
#X connect 11 1 5 0;
#X connect 11 2 6 0;
#X connect 11 3 10 0;
#X connect 12 0 11 0;
#X connect 14 0 13 0;
#X restore 655 74 pd disco-dave;
#X obj 643 -20 mod 16;
#X msg 644 41 0;
#X msg 653 -56 1;
#X msg 681 -56 2;
#X msg 728 41 3;
#X obj 643 2 select 0 2 5 6 10 13 14;
#X obj 627 -102 mod 8;
#X obj 627 -80 select 0 1 2 5;
#X obj 133 113 tgl 15 1 empty empty empty 0 -6 0 8 -260818 -1 -1 1
1;
#X obj 122 136 *~;
#X obj 162 113 tgl 15 1 empty empty empty 0 -6 0 8 -260818 -1 -1 1
1;
#X obj 151 135 *~;
#X obj 192 113 tgl 15 1 empty empty empty 0 -6 0 8 -260818 -1 -1 1
1;
#X obj 181 137 *~;
#X obj 223 113 tgl 15 1 empty empty empty 0 -6 0 8 -260818 -1 -1 1
1;
#X obj 212 136 *~;
#X obj 253 113 tgl 15 1 empty empty empty 0 -6 0 8 -260818 -1 -1 1
1;
#X obj 242 138 *~;
#X obj 282 113 tgl 15 1 empty empty empty 0 -6 0 8 -260818 -1 -1 1
1;
#X obj 271 138 *~;
#X obj 127 218 outlet~;
#X obj 184 217 outlet~;
#X obj 183 188 *~ 0.8;
#X obj 126 189 *~ 0.8;
#X text 297 -140 mellow electronica drumkit;
#X floatatom 53 211 5 0 0 0 - - -;
#X obj 195 -139 inlet;
#X connect 0 0 10 0;
#X connect 0 1 42 0;
#X connect 1 0 0 1;
#X connect 2 0 0 0;
#X connect 3 0 0 0;
#X connect 4 0 0 1;
#X connect 5 0 0 1;
#X connect 6 0 0 0;
#X connect 7 0 8 0;
#X connect 8 0 6 0;
#X connect 8 0 1 0;
#X connect 8 1 5 0;
#X connect 8 2 6 0;
#X connect 8 3 6 0;
#X connect 8 4 4 0;
#X connect 9 0 10 1;
#X connect 10 0 55 0;
#X connect 10 0 56 0;
#X connect 11 0 44 0;
#X connect 12 0 13 0;
#X connect 13 0 11 1;
#X connect 13 1 11 1;
#X connect 13 2 11 0;
#X connect 14 0 46 0;
#X connect 15 0 19 0;
#X connect 16 0 14 0;
#X connect 17 0 14 0;
#X connect 18 0 14 0;
#X connect 19 0 16 0;
#X connect 19 1 17 0;
#X connect 19 2 18 0;
#X connect 20 0 48 0;
#X connect 21 0 20 0;
#X connect 22 0 20 0;
#X connect 23 0 20 0;
#X connect 24 0 50 0;
#X connect 25 0 24 0;
#X connect 26 0 24 0;
#X connect 27 0 28 0;
#X connect 28 0 25 0;
#X connect 28 1 26 0;
#X connect 28 2 29 0;
#X connect 29 0 24 0;
#X connect 30 0 31 0;
#X connect 31 0 21 0;
#X connect 31 1 23 0;
#X connect 31 2 23 0;
#X connect 31 4 22 0;
#X connect 31 5 21 0;
#X connect 32 0 52 0;
#X connect 33 0 38 0;
#X connect 34 0 32 0;
#X connect 35 0 32 0;
#X connect 36 0 32 0;
#X connect 37 0 32 0;
#X connect 38 0 34 0;
#X connect 38 1 37 0;
#X connect 38 2 34 0;
#X connect 38 3 37 0;
#X connect 38 4 37 0;
#X connect 38 5 34 0;
#X connect 38 6 37 0;
#X connect 39 0 40 0;
#X connect 40 0 35 0;
#X connect 40 1 35 0;
#X connect 40 2 35 0;
#X connect 40 3 36 0;
#X connect 41 0 42 1;
#X connect 42 0 55 0;
#X connect 42 0 56 0;
#X connect 43 0 44 1;
#X connect 44 0 55 0;
#X connect 44 0 56 0;
#X connect 45 0 46 1;
#X connect 46 0 55 0;
#X connect 46 0 56 0;
#X connect 47 0 48 1;
#X connect 48 0 55 0;
#X connect 48 0 56 0;
#X connect 49 0 50 1;
#X connect 50 0 55 0;
#X connect 50 0 56 0;
#X connect 51 0 52 1;
#X connect 52 0 55 0;
#X connect 52 0 56 0;
#X connect 55 0 54 0;
#X connect 56 0 53 0;
#X connect 59 0 7 0;
#X connect 59 0 12 0;
#X connect 59 0 15 0;
#X connect 59 0 27 0;
#X connect 59 0 30 0;
#X connect 59 0 33 0;
#X connect 59 0 39 0;
#X coords 0 -1 1 1 200 30 1 100 100;
#X restore 483 356 pd somedrums;
#X obj 646 416 hsl 128 15 0 127 0 0 empty empty empty -2 -8 0 10 -262144
-1 -1 0 1;
#X obj 643 436 mtof;
#X obj 643 457 osc~;
#X obj 564 474 *~;
#X obj 564 512 dac~ 1 2;
#X obj 195 239 dac~;
#X obj 277 133 del 10;
#X msg 277 152 0 500;
#X obj 277 171 line~;
#X obj 277 113 t b;
#X obj 251 193 *~;
#X obj 249 59 t f b;
#X connect 0 0 9 0;
#X connect 1 0 9 0;
#X connect 2 0 8 0;
#X connect 2 1 8 0;
#X connect 3 0 4 0;
#X connect 4 0 10 0;
#X connect 5 0 6 0;
#X connect 6 0 7 0;
#X connect 7 0 8 1;
#X connect 7 0 10 1;
#X connect 8 0 32 0;
#X connect 9 0 3 0;
#X connect 9 0 33 0;
#X connect 10 0 27 0;
#X connect 10 0 27 1;
#X connect 11 0 15 0;
#X connect 12 0 13 0;
#X connect 13 0 14 0;
#X connect 14 0 15 1;
#X connect 15 0 17 0;
#X connect 15 0 17 1;
#X connect 16 0 11 0;
#X connect 19 0 20 0;
#X connect 20 0 18 0;
#X connect 20 0 18 1;
#X connect 21 0 25 0;
#X connect 21 1 25 0;
#X connect 22 0 23 0;
#X connect 23 0 24 0;
#X connect 24 0 25 1;
#X connect 25 0 26 0;
#X connect 25 0 26 1;
#X connect 28 0 29 0;
#X connect 29 0 30 0;
#X connect 30 0 32 1;
#X connect 31 0 28 0;
#X connect 32 0 27 1;
#X connect 32 0 27 0;
#X connect 33 0 2 0;
#X connect 33 1 31 0;
