#N canvas 726 463 519 398 10;
#X obj -114 170 osc~ 440;
#X obj -36 86 t b b;
#X obj -34 106 del 10;
#X msg -34 140 0 500;
#X obj -34 168 line~;
#X obj -113 204 *~;
#X obj -112 236 dac~;
#X msg 7 140 0.5 10;
#X obj -114 52 t f b;
#X msg 75 20 200;
#X obj -114 15 r node;
#X connect 0 0 5 0;
#X connect 1 0 2 0;
#X connect 1 1 7 0;
#X connect 2 0 3 0;
#X connect 3 0 4 0;
#X connect 4 0 5 1;
#X connect 5 0 6 0;
#X connect 5 0 6 1;
#X connect 7 0 4 0;
#X connect 8 0 0 0;
#X connect 8 1 1 0;
#X connect 9 0 8 0;
#X connect 10 0 8 0;
